<svg width="32" height="32" viewBox="0 0 32 32" fill="none" xmlns="http://www.w3.org/2000/svg">
    <path
        d="M29.9286 26.7143H2.07143C1.78727 26.7143 1.51475 26.8272 1.31381 27.0281C1.11288 27.229 1 27.5016 1 27.7857L1 29.9286C1 30.2127 1.11288 30.4853 1.31381 30.6862C1.51475 30.8871 1.78727 31 2.07143 31H29.9286C30.2127 31 30.4853 30.8871 30.6862 30.6862C30.8871 30.4853 31 30.2127 31 29.9286V27.7857C31 27.5016 30.8871 27.229 30.6862 27.0281C30.4853 26.8272 30.2127 26.7143 29.9286 26.7143ZM29.9286 18.1429H2.07143C1.78727 18.1429 1.51475 18.2557 1.31381 18.4567C1.11288 18.6576 1 18.9301 1 19.2143L1 21.3571C1 21.6413 1.11288 21.9138 1.31381 22.1148C1.51475 22.3157 1.78727 22.4286 2.07143 22.4286H29.9286C30.2127 22.4286 30.4853 22.3157 30.6862 22.1148C30.8871 21.9138 31 21.6413 31 21.3571V19.2143C31 18.9301 30.8871 18.6576 30.6862 18.4567C30.4853 18.2557 30.2127 18.1429 29.9286 18.1429ZM29.9286 9.57143H2.07143C1.78727 9.57143 1.51475 9.68431 1.31381 9.88524C1.11288 10.0862 1 10.3587 1 10.6429L1 12.7857C1 13.0699 1.11288 13.3424 1.31381 13.5433C1.51475 13.7443 1.78727 13.8571 2.07143 13.8571H29.9286C30.2127 13.8571 30.4853 13.7443 30.6862 13.5433C30.8871 13.3424 31 13.0699 31 12.7857V10.6429C31 10.3587 30.8871 10.0862 30.6862 9.88524C30.4853 9.68431 30.2127 9.57143 29.9286 9.57143ZM29.9286 1H2.07143C1.78727 1 1.51475 1.11288 1.31381 1.31381C1.11288 1.51475 1 1.78727 1 2.07143L1 4.21429C1 4.49845 1.11288 4.77097 1.31381 4.9719C1.51475 5.17283 1.78727 5.28571 2.07143 5.28571H29.9286C30.2127 5.28571 30.4853 5.17283 30.6862 4.9719C30.8871 4.77097 31 4.49845 31 4.21429V2.07143C31 1.78727 30.8871 1.51475 30.6862 1.31381C30.4853 1.11288 30.2127 1 29.9286 1Z"
        fill="black" stroke="black" stroke-width="2" />
</svg>